# xmcd
#
# Track frame offsets:
# 150
# 1803
# 15480
# 34385
# 53191
# 58257
# 78739
# 97357
# 120333
# 141093
# 145530
# 165592
# 189172
# 210452
# 218392
# 235904
# 251047
#
# Disc length: 3569 seconds
#
# Revision: 0
# Processed by: cddbd v1.4PL0 Copyright (c) Steve Scherf et al.
# Submitted via: Audion 3.0.2 (http://www.panic.com/audion/)
#
DISCID=e30def11
DTITLE=Chingy - Jackpot
DYEAR=1900
DGENRE=
TTITLE0=Jackpot Intro
TTITLE1=He's Herre
TTITLE2=Represent (Featuring Tity-Boi, I-20)
TTITLE3=Right Thurr
TTITLE4=Jackpot The Pimp (Skit)
TTITLE5=Wurrs My Cash
TTITLE6=Chingy Jackpot
TTITLE7=Sample Dat Ass (Featuring Murphy Lee)
TTITLE8=One Call Away (Featuring J/Weav)
TTITLE9=Dice Game (Skit)
TTITLE10=Gettin' It
TTITLE11=Holidae In (Featuring Ludacris And Snoop Dogg)
TTITLE12=Juice
TTITLE13=F*ck Dat Nigga (Skit)
TTITLE14=Madd @ Me
TTITLE15=Bagg Up
TTITLE16=Right Thurr (Remix) (Featuring Jermaine Dupri and Trina)
EXTD=
EXTT0=
EXTT1=
EXTT2=
EXTT3=
EXTT4=
EXTT5=
EXTT6=
EXTT7=
EXTT8=
EXTT9=
EXTT10=
EXTT11=
EXTT12=
EXTT13=
EXTT14=
EXTT15=
EXTT16=
PLAYORDER=
